<mxfile host="app.diagrams.net" modified="2023-04-10T08:02:47.596Z" agent="Mozilla/5.0 (Windows NT 10.0; Win64; x64) AppleWebKit/537.36 (KHTML, like Gecko) Chrome/112.0.0.0 Safari/537.36" etag="-ewL58V1gJ0k2CI1_Fgd" version="21.1.5" type="github">
  <diagram name="Page-1" id="2YBvvXClWsGukQMizWep">
    <mxGraphModel dx="457" dy="296" grid="1" gridSize="10" guides="1" tooltips="1" connect="1" arrows="1" fold="1" page="1" pageScale="1" pageWidth="850" pageHeight="1100" background="none" math="0" shadow="0">
      <root>
        <mxCell id="0" />
        <mxCell id="1" parent="0" />
        <mxCell id="h5XuBleXws_3pxnVBJZt-28" value="" style="group" vertex="1" connectable="0" parent="1">
          <mxGeometry x="240" y="280" width="360" height="80" as="geometry" />
        </mxCell>
        <mxCell id="h5XuBleXws_3pxnVBJZt-29" value="" style="rounded=0;whiteSpace=wrap;html=1;" vertex="1" parent="h5XuBleXws_3pxnVBJZt-28">
          <mxGeometry width="360" height="80" as="geometry" />
        </mxCell>
        <mxCell id="h5XuBleXws_3pxnVBJZt-30" value="alt" style="rounded=1;whiteSpace=wrap;html=1;fontStyle=1;labelBackgroundColor=none;shadow=0;fillColor=#DEDEDE;" vertex="1" parent="h5XuBleXws_3pxnVBJZt-28">
          <mxGeometry width="50" height="30" as="geometry" />
        </mxCell>
        <mxCell id="h5XuBleXws_3pxnVBJZt-20" value="" style="group" vertex="1" connectable="0" parent="1">
          <mxGeometry x="240" y="190" width="360" height="80" as="geometry" />
        </mxCell>
        <mxCell id="h5XuBleXws_3pxnVBJZt-9" value="" style="rounded=0;whiteSpace=wrap;html=1;" vertex="1" parent="h5XuBleXws_3pxnVBJZt-20">
          <mxGeometry width="360" height="80" as="geometry" />
        </mxCell>
        <mxCell id="h5XuBleXws_3pxnVBJZt-10" value="opt" style="rounded=1;whiteSpace=wrap;html=1;fontStyle=1;labelBackgroundColor=none;shadow=0;fillColor=#DEDEDE;" vertex="1" parent="h5XuBleXws_3pxnVBJZt-20">
          <mxGeometry width="50" height="30" as="geometry" />
        </mxCell>
        <mxCell id="aM9ryv3xv72pqoxQDRHE-5" value="System" style="shape=umlLifeline;perimeter=lifelinePerimeter;whiteSpace=wrap;html=1;container=0;dropTarget=0;collapsible=0;recursiveResize=0;outlineConnect=0;portConstraint=eastwest;newEdgeStyle={&quot;edgeStyle&quot;:&quot;elbowEdgeStyle&quot;,&quot;elbow&quot;:&quot;vertical&quot;,&quot;curved&quot;:0,&quot;rounded&quot;:0};fontStyle=0" parent="1" vertex="1">
          <mxGeometry x="470" y="120" width="100" height="320" as="geometry" />
        </mxCell>
        <mxCell id="aM9ryv3xv72pqoxQDRHE-6" value="" style="html=1;points=[];perimeter=orthogonalPerimeter;outlineConnect=0;targetShapes=umlLifeline;portConstraint=eastwest;newEdgeStyle={&quot;edgeStyle&quot;:&quot;elbowEdgeStyle&quot;,&quot;elbow&quot;:&quot;vertical&quot;,&quot;curved&quot;:0,&quot;rounded&quot;:0};" parent="aM9ryv3xv72pqoxQDRHE-5" vertex="1">
          <mxGeometry x="45" y="80" width="10" height="200" as="geometry" />
        </mxCell>
        <mxCell id="9OKvPz8njvAFGJc4dkxQ-1" value="客户&lt;br&gt;" style="shape=umlActor;verticalLabelPosition=bottom;verticalAlign=top;html=1;outlineConnect=0;" parent="1" vertex="1">
          <mxGeometry x="300" y="100" width="30" height="60" as="geometry" />
        </mxCell>
        <mxCell id="h5XuBleXws_3pxnVBJZt-8" value="" style="endArrow=none;dashed=1;html=1;rounded=0;strokeColor=#000000;" edge="1" parent="1" target="aM9ryv3xv72pqoxQDRHE-2">
          <mxGeometry width="50" height="50" relative="1" as="geometry">
            <mxPoint x="315" y="440" as="sourcePoint" />
            <mxPoint x="304.5" y="180" as="targetPoint" />
            <Array as="points">
              <mxPoint x="315" y="210" />
            </Array>
          </mxGeometry>
        </mxCell>
        <mxCell id="aM9ryv3xv72pqoxQDRHE-2" value="" style="html=1;points=[];perimeter=orthogonalPerimeter;outlineConnect=0;targetShapes=umlLifeline;portConstraint=eastwest;newEdgeStyle={&quot;edgeStyle&quot;:&quot;elbowEdgeStyle&quot;,&quot;elbow&quot;:&quot;vertical&quot;,&quot;curved&quot;:0,&quot;rounded&quot;:0};" parent="1" vertex="1">
          <mxGeometry x="310" y="200" width="10" height="200" as="geometry" />
        </mxCell>
        <mxCell id="h5XuBleXws_3pxnVBJZt-5" value="" style="endArrow=none;dashed=1;html=1;rounded=0;strokeColor=#000000;" edge="1" parent="1" source="aM9ryv3xv72pqoxQDRHE-2" target="9OKvPz8njvAFGJc4dkxQ-1">
          <mxGeometry width="50" height="50" relative="1" as="geometry">
            <mxPoint x="305" y="440" as="sourcePoint" />
            <mxPoint x="304.5" y="180" as="targetPoint" />
            <Array as="points" />
          </mxGeometry>
        </mxCell>
        <mxCell id="aM9ryv3xv72pqoxQDRHE-7" value="用户编号" style="html=1;verticalAlign=bottom;endArrow=block;edgeStyle=elbowEdgeStyle;elbow=vertical;curved=0;rounded=0;" parent="1" source="aM9ryv3xv72pqoxQDRHE-2" target="aM9ryv3xv72pqoxQDRHE-6" edge="1">
          <mxGeometry x="-0.001" relative="1" as="geometry">
            <mxPoint x="410" y="230" as="sourcePoint" />
            <Array as="points">
              <mxPoint x="395" y="220" />
            </Array>
            <mxPoint as="offset" />
          </mxGeometry>
        </mxCell>
        <mxCell id="aM9ryv3xv72pqoxQDRHE-8" value="用户信息列表" style="html=1;verticalAlign=bottom;endArrow=open;dashed=1;endSize=8;edgeStyle=elbowEdgeStyle;elbow=vertical;curved=0;rounded=0;" parent="1" source="aM9ryv3xv72pqoxQDRHE-6" target="aM9ryv3xv72pqoxQDRHE-2" edge="1">
          <mxGeometry relative="1" as="geometry">
            <mxPoint x="410" y="305" as="targetPoint" />
            <Array as="points">
              <mxPoint x="490" y="250" />
              <mxPoint x="405" y="370" />
            </Array>
          </mxGeometry>
        </mxCell>
        <mxCell id="h5XuBleXws_3pxnVBJZt-19" value="用户编号" style="html=1;verticalAlign=bottom;endArrow=block;edgeStyle=elbowEdgeStyle;elbow=vertical;curved=0;rounded=0;" edge="1" parent="1" source="aM9ryv3xv72pqoxQDRHE-2" target="aM9ryv3xv72pqoxQDRHE-6">
          <mxGeometry x="0.0012" relative="1" as="geometry">
            <mxPoint x="322.5" y="300" as="sourcePoint" />
            <Array as="points">
              <mxPoint x="397.5" y="300" />
            </Array>
            <mxPoint x="517.5" y="300" as="targetPoint" />
            <mxPoint as="offset" />
          </mxGeometry>
        </mxCell>
      </root>
    </mxGraphModel>
  </diagram>
</mxfile>
